<mxfile host="app.diagrams.net" modified="2024-05-26T21:14:17.052Z" agent="Mozilla/5.0 (X11; Linux x86_64) AppleWebKit/537.36 (KHTML, like Gecko) Chrome/125.0.0.0 Safari/537.36" etag="hqH5XtLgzN7RO5rx5AOX" version="24.4.4" type="device">
  <diagram name="Página-1" id="dq9GXbK4IMYLKhdNl-S3">
    <mxGraphModel dx="1373" dy="786" grid="1" gridSize="10" guides="1" tooltips="1" connect="1" arrows="1" fold="1" page="1" pageScale="1" pageWidth="1169" pageHeight="827" math="0" shadow="0">
      <root>
        <mxCell id="0" />
        <mxCell id="1" parent="0" />
        <mxCell id="ULV95EP0VUD4HpzsEm0A-19" value="" style="edgeStyle=orthogonalEdgeStyle;rounded=0;orthogonalLoop=1;jettySize=auto;html=1;" edge="1" parent="1" source="ULV95EP0VUD4HpzsEm0A-1" target="ULV95EP0VUD4HpzsEm0A-6">
          <mxGeometry relative="1" as="geometry" />
        </mxCell>
        <mxCell id="ULV95EP0VUD4HpzsEm0A-1" value="&lt;font style=&quot;font-size: 18px;&quot;&gt;Início&lt;/font&gt;" style="rounded=1;whiteSpace=wrap;html=1;fillColor=#fff2cc;strokeColor=#d6b656;" vertex="1" parent="1">
          <mxGeometry x="198.34" y="110" width="120" height="60" as="geometry" />
        </mxCell>
        <mxCell id="ULV95EP0VUD4HpzsEm0A-2" value="&lt;font style=&quot;font-size: 18px;&quot;&gt;Fim&lt;/font&gt;" style="rounded=1;whiteSpace=wrap;html=1;fillColor=#fff2cc;strokeColor=#d6b656;" vertex="1" parent="1">
          <mxGeometry x="198.33999999999997" y="1990" width="120" height="60" as="geometry" />
        </mxCell>
        <mxCell id="ULV95EP0VUD4HpzsEm0A-20" value="" style="edgeStyle=orthogonalEdgeStyle;rounded=0;orthogonalLoop=1;jettySize=auto;html=1;" edge="1" parent="1" source="ULV95EP0VUD4HpzsEm0A-6" target="ULV95EP0VUD4HpzsEm0A-8">
          <mxGeometry relative="1" as="geometry" />
        </mxCell>
        <mxCell id="ULV95EP0VUD4HpzsEm0A-6" value="&lt;div&gt;&lt;span style=&quot;font-size: 16px; background-color: initial;&quot;&gt;contraste, formato (npy e npz),&amp;nbsp;&lt;/span&gt;&lt;span style=&quot;font-size: 16px; background-color: initial;&quot;&gt;fold, gpuid, height, model,&amp;nbsp;&lt;/span&gt;&lt;span style=&quot;font-size: 16px;&quot;&gt;orientation, output, patches,&amp;nbsp;&lt;/span&gt;&lt;span style=&quot;font-size: 16px; background-color: initial;&quot;&gt;save_images, width&lt;/span&gt;&lt;/div&gt;" style="html=1;strokeWidth=2;shape=manualInput;whiteSpace=wrap;rounded=1;size=26;arcSize=11;aspect=fixed;" vertex="1" parent="1">
          <mxGeometry x="150" y="210" width="216.67" height="130" as="geometry" />
        </mxCell>
        <mxCell id="ULV95EP0VUD4HpzsEm0A-21" value="" style="edgeStyle=orthogonalEdgeStyle;rounded=0;orthogonalLoop=1;jettySize=auto;html=1;" edge="1" parent="1" source="ULV95EP0VUD4HpzsEm0A-8" target="ULV95EP0VUD4HpzsEm0A-9">
          <mxGeometry relative="1" as="geometry" />
        </mxCell>
        <mxCell id="ULV95EP0VUD4HpzsEm0A-8" value="&lt;font style=&quot;font-size: 16px;&quot;&gt;&lt;i&gt;Patches&lt;/i&gt;?&lt;/font&gt;" style="rhombus;whiteSpace=wrap;html=1;" vertex="1" parent="1">
          <mxGeometry x="178.34" y="370" width="160" height="120" as="geometry" />
        </mxCell>
        <mxCell id="ULV95EP0VUD4HpzsEm0A-22" style="edgeStyle=orthogonalEdgeStyle;rounded=0;orthogonalLoop=1;jettySize=auto;html=1;exitX=0.5;exitY=1;exitDx=0;exitDy=0;" edge="1" parent="1" source="ULV95EP0VUD4HpzsEm0A-9" target="ULV95EP0VUD4HpzsEm0A-10">
          <mxGeometry relative="1" as="geometry" />
        </mxCell>
        <mxCell id="ULV95EP0VUD4HpzsEm0A-9" value="Calcula as divisões dos patches" style="rounded=0;whiteSpace=wrap;html=1;fontSize=16;" vertex="1" parent="1">
          <mxGeometry x="198.34" y="530" width="120" height="60" as="geometry" />
        </mxCell>
        <mxCell id="ULV95EP0VUD4HpzsEm0A-23" style="edgeStyle=orthogonalEdgeStyle;rounded=0;orthogonalLoop=1;jettySize=auto;html=1;exitX=0.5;exitY=1;exitDx=0;exitDy=0;entryX=0.5;entryY=0;entryDx=0;entryDy=0;" edge="1" parent="1" source="ULV95EP0VUD4HpzsEm0A-10" target="ULV95EP0VUD4HpzsEm0A-11">
          <mxGeometry relative="1" as="geometry" />
        </mxCell>
        <mxCell id="ULV95EP0VUD4HpzsEm0A-10" value="Carrega o modelo" style="rounded=0;whiteSpace=wrap;html=1;fontSize=16;" vertex="1" parent="1">
          <mxGeometry x="198.34" y="640" width="120" height="60" as="geometry" />
        </mxCell>
        <mxCell id="ULV95EP0VUD4HpzsEm0A-50" style="edgeStyle=orthogonalEdgeStyle;rounded=0;orthogonalLoop=1;jettySize=auto;html=1;exitX=0.5;exitY=1;exitDx=0;exitDy=0;" edge="1" parent="1" source="ULV95EP0VUD4HpzsEm0A-11" target="ULV95EP0VUD4HpzsEm0A-47">
          <mxGeometry relative="1" as="geometry" />
        </mxCell>
        <mxCell id="ULV95EP0VUD4HpzsEm0A-52" style="edgeStyle=orthogonalEdgeStyle;rounded=0;orthogonalLoop=1;jettySize=auto;html=1;exitX=0;exitY=0.5;exitDx=0;exitDy=0;entryX=0;entryY=0.5;entryDx=0;entryDy=0;" edge="1" parent="1" source="ULV95EP0VUD4HpzsEm0A-11" target="ULV95EP0VUD4HpzsEm0A-8">
          <mxGeometry relative="1" as="geometry">
            <Array as="points">
              <mxPoint x="40" y="820" />
              <mxPoint x="40" y="430" />
            </Array>
          </mxGeometry>
        </mxCell>
        <mxCell id="ULV95EP0VUD4HpzsEm0A-11" value="&lt;font style=&quot;font-size: 16px;&quot;&gt;&lt;i&gt;Folds&lt;/i&gt;?&lt;/font&gt;" style="rhombus;whiteSpace=wrap;html=1;" vertex="1" parent="1">
          <mxGeometry x="178.34" y="760" width="160" height="120" as="geometry" />
        </mxCell>
        <mxCell id="ULV95EP0VUD4HpzsEm0A-25" value="" style="edgeStyle=orthogonalEdgeStyle;rounded=0;orthogonalLoop=1;jettySize=auto;html=1;" edge="1" parent="1" target="ULV95EP0VUD4HpzsEm0A-14">
          <mxGeometry relative="1" as="geometry">
            <mxPoint x="258.3399999999999" y="1150" as="sourcePoint" />
          </mxGeometry>
        </mxCell>
        <mxCell id="ULV95EP0VUD4HpzsEm0A-12" value="Carrega&amp;nbsp; imagem" style="rounded=0;whiteSpace=wrap;html=1;fontSize=16;" vertex="1" parent="1">
          <mxGeometry x="198.34" y="1100" width="120" height="60" as="geometry" />
        </mxCell>
        <mxCell id="ULV95EP0VUD4HpzsEm0A-36" style="edgeStyle=orthogonalEdgeStyle;rounded=0;orthogonalLoop=1;jettySize=auto;html=1;exitX=0.5;exitY=1;exitDx=0;exitDy=0;" edge="1" parent="1" source="ULV95EP0VUD4HpzsEm0A-17" target="ULV95EP0VUD4HpzsEm0A-35">
          <mxGeometry relative="1" as="geometry" />
        </mxCell>
        <mxCell id="ULV95EP0VUD4HpzsEm0A-17" value="Extrai características" style="rounded=0;whiteSpace=wrap;html=1;fontSize=16;" vertex="1" parent="1">
          <mxGeometry x="198.34" y="1590" width="120" height="60" as="geometry" />
        </mxCell>
        <mxCell id="ULV95EP0VUD4HpzsEm0A-29" value="" style="edgeStyle=orthogonalEdgeStyle;rounded=0;orthogonalLoop=1;jettySize=auto;html=1;" edge="1" parent="1" source="ULV95EP0VUD4HpzsEm0A-18" target="ULV95EP0VUD4HpzsEm0A-17">
          <mxGeometry relative="1" as="geometry" />
        </mxCell>
        <mxCell id="ULV95EP0VUD4HpzsEm0A-49" style="edgeStyle=orthogonalEdgeStyle;rounded=0;orthogonalLoop=1;jettySize=auto;html=1;exitX=0;exitY=0.5;exitDx=0;exitDy=0;entryX=0;entryY=0.5;entryDx=0;entryDy=0;" edge="1" parent="1" source="ULV95EP0VUD4HpzsEm0A-18" target="ULV95EP0VUD4HpzsEm0A-47">
          <mxGeometry relative="1" as="geometry">
            <Array as="points">
              <mxPoint x="40" y="1470" />
              <mxPoint x="40" y="990" />
            </Array>
          </mxGeometry>
        </mxCell>
        <mxCell id="ULV95EP0VUD4HpzsEm0A-18" value="&lt;span style=&quot;font-size: 16px;&quot;&gt;Tem &lt;i&gt;patch&lt;/i&gt;?&lt;/span&gt;" style="rhombus;whiteSpace=wrap;html=1;" vertex="1" parent="1">
          <mxGeometry x="178.34" y="1410" width="160" height="120" as="geometry" />
        </mxCell>
        <mxCell id="ULV95EP0VUD4HpzsEm0A-33" value="" style="edgeStyle=orthogonalEdgeStyle;rounded=0;orthogonalLoop=1;jettySize=auto;html=1;" edge="1" parent="1" source="ULV95EP0VUD4HpzsEm0A-14" target="ULV95EP0VUD4HpzsEm0A-18">
          <mxGeometry relative="1" as="geometry" />
        </mxCell>
        <mxCell id="ULV95EP0VUD4HpzsEm0A-37" style="edgeStyle=orthogonalEdgeStyle;rounded=0;orthogonalLoop=1;jettySize=auto;html=1;exitX=1;exitY=0.5;exitDx=0;exitDy=0;entryX=1;entryY=0.5;entryDx=0;entryDy=0;" edge="1" parent="1" source="ULV95EP0VUD4HpzsEm0A-35" target="ULV95EP0VUD4HpzsEm0A-18">
          <mxGeometry relative="1" as="geometry">
            <Array as="points">
              <mxPoint x="480" y="1740" />
              <mxPoint x="480" y="1470" />
            </Array>
          </mxGeometry>
        </mxCell>
        <mxCell id="ULV95EP0VUD4HpzsEm0A-42" value="" style="edgeStyle=orthogonalEdgeStyle;rounded=0;orthogonalLoop=1;jettySize=auto;html=1;" edge="1" parent="1" source="ULV95EP0VUD4HpzsEm0A-35" target="ULV95EP0VUD4HpzsEm0A-38">
          <mxGeometry relative="1" as="geometry" />
        </mxCell>
        <mxCell id="ULV95EP0VUD4HpzsEm0A-35" value="Armazena características em uma lista" style="rounded=0;whiteSpace=wrap;html=1;fontSize=16;" vertex="1" parent="1">
          <mxGeometry x="198.34" y="1710" width="120" height="60" as="geometry" />
        </mxCell>
        <mxCell id="ULV95EP0VUD4HpzsEm0A-59" value="" style="edgeStyle=orthogonalEdgeStyle;rounded=0;orthogonalLoop=1;jettySize=auto;html=1;" edge="1" parent="1" source="ULV95EP0VUD4HpzsEm0A-38" target="ULV95EP0VUD4HpzsEm0A-58">
          <mxGeometry relative="1" as="geometry" />
        </mxCell>
        <mxCell id="ULV95EP0VUD4HpzsEm0A-38" value="Invoca a função &lt;font face=&quot;Courier New&quot;&gt;save&lt;/font&gt;" style="rounded=0;whiteSpace=wrap;html=1;fontSize=16;" vertex="1" parent="1">
          <mxGeometry x="198.34" y="1840" width="120" height="60" as="geometry" />
        </mxCell>
        <mxCell id="ULV95EP0VUD4HpzsEm0A-61" value="" style="edgeStyle=orthogonalEdgeStyle;rounded=0;orthogonalLoop=1;jettySize=auto;html=1;" edge="1" parent="1" source="ULV95EP0VUD4HpzsEm0A-39" target="ULV95EP0VUD4HpzsEm0A-40">
          <mxGeometry relative="1" as="geometry" />
        </mxCell>
        <mxCell id="ULV95EP0VUD4HpzsEm0A-39" value="Salva imagens com patches" style="rounded=0;whiteSpace=wrap;html=1;fontSize=16;" vertex="1" parent="1">
          <mxGeometry x="525" y="1840" width="120" height="60" as="geometry" />
        </mxCell>
        <mxCell id="ULV95EP0VUD4HpzsEm0A-62" value="" style="edgeStyle=orthogonalEdgeStyle;rounded=0;orthogonalLoop=1;jettySize=auto;html=1;" edge="1" parent="1" source="ULV95EP0VUD4HpzsEm0A-40" target="ULV95EP0VUD4HpzsEm0A-41">
          <mxGeometry relative="1" as="geometry" />
        </mxCell>
        <mxCell id="ULV95EP0VUD4HpzsEm0A-40" value="Salva informações do &lt;i&gt;dataset&lt;/i&gt;" style="rounded=0;whiteSpace=wrap;html=1;fontSize=16;" vertex="1" parent="1">
          <mxGeometry x="685" y="1840" width="120" height="60" as="geometry" />
        </mxCell>
        <mxCell id="ULV95EP0VUD4HpzsEm0A-63" style="edgeStyle=orthogonalEdgeStyle;rounded=0;orthogonalLoop=1;jettySize=auto;html=1;exitX=0.5;exitY=1;exitDx=0;exitDy=0;" edge="1" parent="1" source="ULV95EP0VUD4HpzsEm0A-41" target="ULV95EP0VUD4HpzsEm0A-2">
          <mxGeometry relative="1" as="geometry" />
        </mxCell>
        <mxCell id="ULV95EP0VUD4HpzsEm0A-41" value="Salva informações das amostras utilizadas" style="rounded=0;whiteSpace=wrap;html=1;fontSize=16;" vertex="1" parent="1">
          <mxGeometry x="840" y="1830" width="151.66" height="80" as="geometry" />
        </mxCell>
        <mxCell id="ULV95EP0VUD4HpzsEm0A-48" style="edgeStyle=orthogonalEdgeStyle;rounded=0;orthogonalLoop=1;jettySize=auto;html=1;exitX=0.5;exitY=1;exitDx=0;exitDy=0;" edge="1" parent="1" source="ULV95EP0VUD4HpzsEm0A-47" target="ULV95EP0VUD4HpzsEm0A-12">
          <mxGeometry relative="1" as="geometry" />
        </mxCell>
        <mxCell id="ULV95EP0VUD4HpzsEm0A-51" style="edgeStyle=orthogonalEdgeStyle;rounded=0;orthogonalLoop=1;jettySize=auto;html=1;exitX=1;exitY=0.5;exitDx=0;exitDy=0;entryX=1;entryY=0.5;entryDx=0;entryDy=0;" edge="1" parent="1" source="ULV95EP0VUD4HpzsEm0A-47" target="ULV95EP0VUD4HpzsEm0A-11">
          <mxGeometry relative="1" as="geometry">
            <Array as="points">
              <mxPoint x="490" y="990" />
              <mxPoint x="490" y="820" />
            </Array>
          </mxGeometry>
        </mxCell>
        <mxCell id="ULV95EP0VUD4HpzsEm0A-47" value="&lt;span style=&quot;font-size: 16px;&quot;&gt;Tem imagem?&lt;/span&gt;" style="rhombus;whiteSpace=wrap;html=1;" vertex="1" parent="1">
          <mxGeometry x="178.34" y="930" width="160" height="120" as="geometry" />
        </mxCell>
        <mxCell id="ULV95EP0VUD4HpzsEm0A-54" value="" style="group" vertex="1" connectable="0" parent="1">
          <mxGeometry x="178.34" y="1220" width="361.65999999999997" height="120" as="geometry" />
        </mxCell>
        <mxCell id="ULV95EP0VUD4HpzsEm0A-16" style="edgeStyle=orthogonalEdgeStyle;rounded=0;orthogonalLoop=1;jettySize=auto;html=1;exitX=1;exitY=0.5;exitDx=0;exitDy=0;entryX=0;entryY=0.5;entryDx=0;entryDy=0;" edge="1" parent="ULV95EP0VUD4HpzsEm0A-54" source="ULV95EP0VUD4HpzsEm0A-14" target="ULV95EP0VUD4HpzsEm0A-15">
          <mxGeometry relative="1" as="geometry" />
        </mxCell>
        <mxCell id="ULV95EP0VUD4HpzsEm0A-14" value="&lt;font style=&quot;font-size: 16px;&quot;&gt;Contraste?&lt;/font&gt;" style="rhombus;whiteSpace=wrap;html=1;" vertex="1" parent="ULV95EP0VUD4HpzsEm0A-54">
          <mxGeometry width="160" height="120" as="geometry" />
        </mxCell>
        <mxCell id="ULV95EP0VUD4HpzsEm0A-15" value="Ajusta contraste" style="rounded=0;whiteSpace=wrap;html=1;fontSize=16;" vertex="1" parent="ULV95EP0VUD4HpzsEm0A-54">
          <mxGeometry x="241.66" y="30" width="120" height="60" as="geometry" />
        </mxCell>
        <mxCell id="ULV95EP0VUD4HpzsEm0A-55" style="edgeStyle=orthogonalEdgeStyle;rounded=0;orthogonalLoop=1;jettySize=auto;html=1;exitX=0.5;exitY=1;exitDx=0;exitDy=0;entryX=0.5;entryY=0;entryDx=0;entryDy=0;" edge="1" parent="1" source="ULV95EP0VUD4HpzsEm0A-15" target="ULV95EP0VUD4HpzsEm0A-18">
          <mxGeometry relative="1" as="geometry" />
        </mxCell>
        <mxCell id="ULV95EP0VUD4HpzsEm0A-60" value="" style="edgeStyle=orthogonalEdgeStyle;rounded=0;orthogonalLoop=1;jettySize=auto;html=1;" edge="1" parent="1" source="ULV95EP0VUD4HpzsEm0A-58" target="ULV95EP0VUD4HpzsEm0A-39">
          <mxGeometry relative="1" as="geometry" />
        </mxCell>
        <mxCell id="ULV95EP0VUD4HpzsEm0A-58" value="Salva características em uma arquivo" style="rounded=0;whiteSpace=wrap;html=1;fontSize=16;" vertex="1" parent="1">
          <mxGeometry x="365" y="1840" width="120" height="60" as="geometry" />
        </mxCell>
      </root>
    </mxGraphModel>
  </diagram>
</mxfile>
